<svg xmlns="http://www.w3.org/2000/svg" viewBox="0 0 32 32">
  <!-- stem -->
  <path d="M16 30 C16 24 15 18 14 12" stroke="#c8a030" stroke-width="1.8" stroke-linecap="round" fill="none" opacity="0.72"/>
  <!-- awns -->
  <line x1="14" y1="12" x2="12" y2="7" stroke="#c0980a" stroke-width="1" stroke-linecap="round" opacity="0.58"/>
  <line x1="14" y1="12" x2="16" y2="7" stroke="#c0980a" stroke-width="1" stroke-linecap="round" opacity="0.55"/>
  <!-- wheat head grains -->
  <ellipse cx="14" cy="11" rx="3" ry="5" fill="#d4a830" opacity="0.68"/>
  <ellipse cx="9.5" cy="14" rx="2.5" ry="4.2" transform="rotate(-22 9.5 14)" fill="#c89428" opacity="0.63"/>
  <ellipse cx="18.5" cy="14" rx="2.5" ry="4.2" transform="rotate(22 18.5 14)" fill="#c89428" opacity="0.63"/>
  <ellipse cx="7" cy="18" rx="2.5" ry="3.8" transform="rotate(-32 7 18)" fill="#b88428" opacity="0.58"/>
  <ellipse cx="21" cy="18" rx="2.5" ry="3.8" transform="rotate(32 21 18)" fill="#b88428" opacity="0.58"/>
  <!-- highlight on main head -->
  <ellipse cx="13" cy="9" rx="1.2" ry="2.5" fill="#f2d878" opacity="0.35"/>
  <!-- leaf left -->
  <path d="M16 22 C12 20 9 22 9 25 C12 24 15 23 16 22Z" fill="#6a9040" opacity="0.55"/>
  <!-- leaf right -->
  <path d="M16 18 C20 16 23 18 23 21 C20 20 17 19 16 18Z" fill="#5d8a3a" opacity="0.52"/>
</svg>
