<svg xmlns="http://www.w3.org/2000/svg" viewBox="0 0 32 32">
  <!-- soil bed -->
  <path d="M3 26 C8 24 24 24 29 26 C29 30 24 31 16 31 C8 31 3 30 3 26Z" fill="#8b5c3a" opacity="0.55"/>
  <!-- soil shading -->
  <path d="M5 27 C10 26 22 26 27 27" stroke="#6a3e20" stroke-width="0.8" fill="none" opacity="0.30"/>
  <!-- main stem -->
  <path d="M16 26 C15 22 14 18 12 13" stroke="#4a7a46" stroke-width="2.2" stroke-linecap="round" fill="none" opacity="0.72"/>
  <!-- left leaf -->
  <path d="M12 17 C7 14 4 9 6 4 C9 2 13 7 13 13 C13 15 12 17 12 17Z" fill="#5d8a5a" opacity="0.72"/>
  <!-- right leaf -->
  <path d="M12 14 C17 10 22 7 25 3 C28 5 24 12 19 15 C17 17 12 14 12 14Z" fill="#6a9a5a" opacity="0.67"/>
  <!-- new growth tip -->
  <circle cx="12" cy="12" r="3" fill="#a0d078" opacity="0.62"/>
  <path d="M12 9 C12 12 12 12" stroke="#6ab050" stroke-width="1" fill="none" stroke-linecap="round" opacity="0.50"/>
  <!-- leaf vein left -->
  <path d="M12 17 C9 13 7 8" stroke="#3a6a36" stroke-width="0.6" fill="none" opacity="0.28"/>
  <!-- leaf vein right -->
  <path d="M12 14 C16 11 20 7" stroke="#3a6a36" stroke-width="0.6" fill="none" opacity="0.28"/>
</svg>
