<svg xmlns="http://www.w3.org/2000/svg" viewBox="0 0 100 100">
  <ellipse cx="50" cy="89" rx="24" ry="7" fill="#7a5c22"/>
  <ellipse cx="50" cy="86" rx="16" ry="4.5" fill="#9B7A3A" opacity="0.4"/>
  <path d="M50 87 Q38 76 26 68 Q16 60 14 50" stroke="#3a7818" stroke-width="2" fill="none" stroke-linecap="round"/>
  <ellipse cx="24" cy="66" rx="5" ry="3" fill="#4a9820" transform="rotate(-25 24 66)"/>
  <ellipse cx="16" cy="57" rx="5" ry="3" fill="#5aac28" transform="rotate(-35 16 57)"/>
  <path d="M50 87 Q62 76 74 68 Q84 60 86 50" stroke="#3a7818" stroke-width="2" fill="none" stroke-linecap="round"/>
  <ellipse cx="76" cy="66" rx="5" ry="3" fill="#4a9820" transform="rotate(25 76 66)"/>
  <ellipse cx="84" cy="57" rx="5" ry="3" fill="#5aac28" transform="rotate(35 84 57)"/>
  <path d="M50 87 Q48 72 46 58" stroke="#3a7818" stroke-width="2" fill="none" stroke-linecap="round"/>
  <ellipse cx="42" cy="64" rx="4.5" ry="2.5" fill="#5aac28" transform="rotate(-15 42 64)"/>
  <ellipse cx="54" cy="64" rx="4.5" ry="2.5" fill="#4a9820" transform="rotate(15 54 64)"/>
  <!-- pods -->
  <rect x="20" y="48" width="10" height="4" rx="2" fill="#5a8818" transform="rotate(-30 25 50)"/>
  <rect x="74" y="48" width="10" height="4" rx="2" fill="#5a8818" transform="rotate(30 79 50)"/>
  <rect x="44" y="52" width="10" height="4" rx="2" fill="#4a7c18" transform="rotate(-10 49 54)"/>
  <!-- pod bumps -->
  <circle cx="23" cy="48" r="2" fill="#4a7c18" transform="rotate(-30 25 50)"/>
  <circle cx="27" cy="48" r="2" fill="#4a7c18" transform="rotate(-30 25 50)"/>
</svg>
